<?xml version="1.0" standalone="no"?>
<!DOCTYPE svg PUBLIC "-//W3C//DTD SVG 20010904//EN"
 "http://www.w3.org/TR/2001/REC-SVG-20010904/DTD/svg10.dtd">
<svg version="1.0" xmlns="http://www.w3.org/2000/svg"
 width="225.000000pt" height="225.000000pt" viewBox="0 0 225.000000 225.000000"
 preserveAspectRatio="xMidYMid meet">

<g transform="translate(0.000000,225.000000) scale(0.100000,-0.100000)"
fill="#000000" stroke="none">
<path d="M927 2235 c-227 -43 -434 -152 -597 -315 -141 -141 -245 -322 -297
-517 -24 -89 -27 -115 -27 -278 0 -163 3 -189 27 -278 52 -195 156 -376 297
-517 141 -141 322 -245 517 -297 89 -24 114 -27 278 -27 162 1 190 3 278 27
195 52 376 156 517 297 141 141 245 322 297 517 24 89 26 115 26 278 0 163 -2
189 -26 278 -52 195 -156 376 -297 517 -142 141 -324 246 -517 297 -125 32
-354 41 -476 18z m-7 -710 c0 -102 2 -185 4 -185 2 0 29 15 59 34 177 106 400
51 481 -117 38 -78 46 -156 46 -449 l0 -268 -89 0 -89 0 -4 288 c-4 266 -6
290 -25 334 -31 68 -70 90 -155 86 -81 -4 -137 -38 -181 -109 -36 -58 -47
-154 -47 -411 l0 -188 -90 0 -90 0 0 585 0 585 90 0 90 0 0 -185z"/>
</g>
</svg>
